<?xml version="1.0" encoding="utf-8"?>
<!-- Generator: Adobe Illustrator 16.0.2, SVG Export Plug-In . SVG Version: 6.00 Build 0)  -->
<!DOCTYPE svg PUBLIC "-//W3C//DTD SVG 1.1//EN" "http://www.w3.org/Graphics/SVG/1.1/DTD/svg11.dtd">
<svg version="1.1" id="Layer_1" xmlns="http://www.w3.org/2000/svg" xmlns:xlink="http://www.w3.org/1999/xlink" x="0px" y="0px"
	 width="50px" height="43px" viewBox="0 0 50 43" enable-background="new 0 0 50 43" xml:space="preserve">
<path display="none" fill="#0EA5EA" d="M37.432,2.32v10.036l-12.477,6.961V5.371l8.971-4.92c0.348-0.195,0.742-0.3,1.146-0.304
	c0.402-0.004,0.8,0.093,1.152,0.281c0.352,0.188,0.648,0.461,0.86,0.793C37.297,1.553,37.416,1.931,37.432,2.32z"/>
<path display="none" opacity="0.3" fill="#0EA5EA" enable-background="new    " d="M12.477,2.32v10.036l12.478,6.961V5.371
	l-8.971-4.92c-0.349-0.195-0.743-0.3-1.146-0.304c-0.403-0.004-0.8,0.093-1.152,0.281c-0.353,0.188-0.649,0.461-0.861,0.793
	C12.613,1.552,12.493,1.931,12.477,2.32z"/>
<path display="none" fill="#0EA5EA" d="M34.932,41.723l-8.725-4.98l0.141-14.273l12.125,6.922l-0.176,10.221
	c-0.003,0.397-0.107,0.793-0.305,1.145c-0.195,0.352-0.477,0.646-0.815,0.859c-0.338,0.213-0.723,0.334-1.116,0.354
	C35.667,41.984,35.277,41.9,34.932,41.723z"/>
<path display="none" opacity="0.3" fill="#0EA5EA" enable-background="new    " d="M47.316,20.085l-8.726-4.981l-12.243,7.364
	l12.125,6.923l8.729-5.338c0.342-0.205,0.629-0.496,0.832-0.842c0.203-0.348,0.316-0.74,0.328-1.139
	c0.012-0.399-0.078-0.792-0.262-1.141C47.917,20.583,47.646,20.292,47.316,20.085z"/>
<path display="none" opacity="0.3" fill="#0EA5EA" enable-background="new    " d="M14.274,41.723l8.724-4.98l-0.141-14.273
	l-12.124,6.922l0.175,10.219c0.003,0.398,0.108,0.793,0.305,1.146c0.197,0.353,0.477,0.646,0.816,0.859
	c0.338,0.213,0.723,0.334,1.116,0.354C13.539,41.984,13.927,41.9,14.274,41.723z"/>
<path display="none" fill="#0EA5EA" d="M1.89,20.085l8.724-4.981l12.244,7.364l-12.125,6.923l-8.728-5.338
	c-0.343-0.205-0.63-0.496-0.833-0.842c-0.203-0.348-0.316-0.74-0.328-1.139c-0.012-0.399,0.079-0.792,0.262-1.141
	S1.559,20.292,1.89,20.085z"/>
<g>
	
		<image overflow="visible" width="1024" height="842" id="Layer_5_copy_2_xA0_Image" xlink:href="BD7AA590.png"  transform="matrix(0.0815 0 0 0.0815 -18.875 -5.1592)">
	</image>
	
		<image overflow="visible" width="601" height="601" id="Layer_1_xA0_Image" xlink:href="BD7AA597.png"  transform="matrix(0.0815 0 0 0.0815 0.4507 -3.3652)">
	</image>
</g>
</svg>
