<?xml version="1.0" encoding="utf-8"?>
<!-- Generator: Adobe Illustrator 16.0.2, SVG Export Plug-In . SVG Version: 6.00 Build 0)  -->
<!DOCTYPE svg PUBLIC "-//W3C//DTD SVG 1.1//EN" "http://www.w3.org/Graphics/SVG/1.1/DTD/svg11.dtd">
<svg version="1.1" id="Layer_1" xmlns="http://www.w3.org/2000/svg" xmlns:xlink="http://www.w3.org/1999/xlink" x="0px" y="0px"
	 width="36px" height="31px" viewBox="0 0 36 31" enable-background="new 0 0 36 31" xml:space="preserve">
<path display="none" fill="#0EA5EA" d="M26.951,1.673v7.235l-8.984,5.019V3.872l6.458-3.546c0.252-0.141,0.535-0.216,0.826-0.219
	c0.289-0.003,0.575,0.066,0.829,0.202s0.468,0.333,0.62,0.572C26.854,1.119,26.939,1.392,26.951,1.673z"/>
<path display="none" opacity="0.3" fill="#0EA5EA" enable-background="new    " d="M8.983,1.673v7.235l8.984,5.019V3.872
	l-6.459-3.546c-0.251-0.141-0.535-0.216-0.825-0.219c-0.29-0.003-0.576,0.066-0.83,0.202S9.386,0.641,9.233,0.88
	C9.081,1.119,8.995,1.392,8.983,1.673z"/>
<path display="none" fill="#0EA5EA" d="M25.15,30.078l-6.281-3.59l0.102-10.291l8.729,4.99l-0.126,7.367
	c-0.002,0.288-0.078,0.572-0.219,0.826c-0.143,0.253-0.344,0.467-0.588,0.619c-0.244,0.154-0.521,0.241-0.805,0.255
	S25.4,30.208,25.15,30.078z"/>
<path display="none" opacity="0.3" fill="#0EA5EA" enable-background="new    " d="M34.067,14.479l-6.281-3.59l-8.815,5.308
	l8.729,4.99l6.284-3.847c0.247-0.148,0.453-0.357,0.6-0.608c0.146-0.25,0.229-0.532,0.236-0.82c0.009-0.288-0.057-0.571-0.188-0.822
	C34.5,14.839,34.306,14.629,34.067,14.479z"/>
<path display="none" opacity="0.3" fill="#0EA5EA" enable-background="new    " d="M10.277,30.078l6.281-3.59l-0.101-10.291
	l-8.729,4.99l0.126,7.367c0.002,0.288,0.078,0.572,0.219,0.826C8.214,29.634,8.417,29.848,8.661,30
	c0.244,0.154,0.521,0.241,0.804,0.255S10.028,30.208,10.277,30.078z"/>
<path display="none" fill="#0EA5EA" d="M1.36,14.479l6.282-3.59l8.815,5.308l-8.729,4.99l-6.285-3.847
	c-0.247-0.148-0.453-0.357-0.6-0.608c-0.146-0.25-0.228-0.532-0.236-0.82c-0.008-0.288,0.057-0.571,0.188-0.822
	S1.122,14.629,1.36,14.479z"/>
<g>
	
		<image overflow="visible" width="1024" height="842" id="Layer_5_copy_2_xA0_Image" xlink:href="EF2B40F4.png"  transform="matrix(0.0592 0 0 0.0592 -14 -3.7373)">
	</image>
	
		<image overflow="visible" width="601" height="601" id="Layer_1_xA0_Image" xlink:href="EF2B40F5.png"  transform="matrix(0.0592 0 0 0.0592 0.0313 -2.4351)">
	</image>
</g>
</svg>
