<?xml version="1.0" encoding="utf-8"?>
<!-- Generator: Adobe Illustrator 16.0.2, SVG Export Plug-In . SVG Version: 6.00 Build 0)  -->
<!DOCTYPE svg PUBLIC "-//W3C//DTD SVG 1.1//EN" "http://www.w3.org/Graphics/SVG/1.1/DTD/svg11.dtd">
<svg version="1.1" id="Layer_1" xmlns="http://www.w3.org/2000/svg" xmlns:xlink="http://www.w3.org/1999/xlink" x="0px" y="0px"
	 width="126px" height="36px" viewBox="0 0 126 36" enable-background="new 0 0 126 36" xml:space="preserve">
<path display="none" fill="#0EA5EA" d="M28.344,4.567v7.236l-8.983,5.019V6.766l6.458-3.547C26.07,3.079,26.354,3.003,26.645,3
	s0.576,0.067,0.83,0.202c0.254,0.136,0.467,0.333,0.62,0.572S28.333,4.286,28.344,4.567z"/>
<path display="none" opacity="0.3" fill="#0EA5EA" enable-background="new    " d="M10.377,4.567v7.236l8.984,5.019V6.766
	l-6.459-3.547C12.651,3.079,12.367,3.003,12.077,3s-0.576,0.067-0.83,0.202c-0.254,0.136-0.467,0.333-0.62,0.572
	S10.388,4.286,10.377,4.567z"/>
<path display="none" fill="#0EA5EA" d="M26.544,32.973l-6.282-3.591l0.101-10.29l8.729,4.99l-0.126,7.367
	c-0.002,0.288-0.078,0.572-0.219,0.826c-0.141,0.252-0.344,0.467-0.587,0.619c-0.244,0.153-0.521,0.241-0.804,0.255
	S26.793,33.102,26.544,32.973z"/>
<path display="none" opacity="0.3" fill="#0EA5EA" enable-background="new    " d="M35.461,17.374l-6.282-3.591l-8.815,5.309
	l8.729,4.99l6.285-3.848c0.247-0.147,0.453-0.357,0.6-0.607s0.228-0.533,0.236-0.82c0.008-0.288-0.057-0.571-0.188-0.822
	S35.699,17.523,35.461,17.374z"/>
<path display="none" opacity="0.3" fill="#0EA5EA" enable-background="new    " d="M11.67,32.973l6.281-3.591l-0.101-10.29
	l-8.729,4.99l0.126,7.367c0.002,0.288,0.078,0.572,0.219,0.826c0.142,0.252,0.344,0.467,0.587,0.619
	c0.244,0.153,0.521,0.241,0.804,0.255S11.421,33.102,11.67,32.973z"/>
<path display="none" fill="#0EA5EA" d="M2.754,17.374l6.281-3.591l8.815,5.309l-8.729,4.99l-6.284-3.848
	c-0.247-0.147-0.454-0.357-0.6-0.607S2.009,19.094,2,18.807c-0.008-0.288,0.057-0.571,0.189-0.822
	C2.321,17.733,2.516,17.523,2.754,17.374z"/>
<g>
	
		<image overflow="visible" width="1024" height="842" id="Layer_5_copy_2_xA0_Image" xlink:href="68227BC5.png"  transform="matrix(0.0663 0 0 0.0663 -15.0767 -3.5679)">
	</image>
	
		<image overflow="visible" width="601" height="601" id="Layer_1_xA0_Image" xlink:href="68227BC7.png"  transform="matrix(0.0663 0 0 0.0663 0.6411 -2.1089)">
	</image>
</g>
</svg>
